<svg xmlns="http://www.w3.org/2000/svg" aria-label="Fictional home improvement demo image" role="img" viewBox="0 0 1200 900"><defs><linearGradient id="sky" x1="0" x2="1" y1="0" y2="1"><stop offset="0%" stop-color="#fef3c7"/><stop offset="55%" stop-color="#f8fafc"/><stop offset="100%" stop-color="#e7e5e4"/></linearGradient><linearGradient id="wood" x1="0" x2="1"><stop offset="0%" stop-color="#92400e"/><stop offset="100%" stop-color="#d97706"/></linearGradient></defs><rect width="1200" height="900" fill="url(#sky)"/><rect width="1200" height="270" y="630" fill="#d6d3d1"/><path fill="#a8a29e" d="M0 682c164-72 309-88 436-48 106 34 209 35 309 4 154-48 293-28 455 46v216H0z"/><rect width="720" height="400" x="168" y="270" fill="#fff" rx="28"/><path fill="#292524" d="M128 306 530 120l404 186H128z"/><path fill="url(#wood)" d="M212 332 530 190l316 142H212z"/><rect width="164" height="210" x="248" y="390" fill="#fef3c7" rx="12"/><rect width="128" height="280" x="478" y="390" fill="#7c2d12" rx="12"/><rect width="164" height="210" x="672" y="390" fill="#fef3c7" rx="12"/><rect width="100" height="142" x="280" y="424" fill="#fff" rx="8"/><rect width="100" height="142" x="704" y="424" fill="#fff" rx="8"/><circle cx="582" cy="532" r="12" fill="#d97706"/><rect width="828" height="44" x="124" y="660" fill="#292524" rx="22"/><rect width="178" height="34" x="920" y="468" fill="#d97706" rx="17"/><rect width="118" height="26" x="950" y="520" fill="#92400e" rx="13"/><circle cx="968" cy="610" r="58" fill="#f59e0b"/><path stroke="#fff" stroke-linecap="round" stroke-width="14" d="M948 610h40M968 590v40"/></svg>